<svg xmlns="http://www.w3.org/2000/svg"  viewBox="0 0 16 16" width="64px" height="64px" baseProfile="basic"><polygon fill="#36c8f6" points="2,15 2,0 9,0 14,5 14,15"/><polygon fill="#2583ef" points="9,0 9,5 14,5"/><path fill="#2583ef" d="M10,9c0-1.105-0.895-2-2-2S6,7.895,6,9c0,0.266,0,3,0,3h4C10,12,10,9.266,10,9z"/><path fill="#2583ef" d="M8,11c0-1.105-0.895-2-2-2s-2,0.895-2,2c0,0.266,0,1,0,1h4C8,12,8,11.266,8,11z"/><path fill="#2583ef" d="M12,11.5c0-1.105-0.895-2-2-2s-2,0.895-2,2C8,11.766,8,12,8,12h4C12,12,12,11.766,12,11.5z"/></svg>