<?xml version="1.0" encoding="utf-8"?>
<!-- Generator: Adobe Illustrator 15.1.0, SVG Export Plug-In . SVG Version: 6.00 Build 0)  -->
<!DOCTYPE svg PUBLIC "-//W3C//DTD SVG 1.1//EN" "http://www.w3.org/Graphics/SVG/1.1/DTD/svg11.dtd">
<svg version="1.1" id="Layer_1" xmlns="http://www.w3.org/2000/svg" xmlns:xlink="http://www.w3.org/1999/xlink" x="0px" y="0px"
	 width="500px" height="500px" viewBox="0 0 500 500" enable-background="new 0 0 500 500" xml:space="preserve">
<path fill="#C7EDE6" d="M441.775,279.98c1.494-3.07,2.814-6.295,3.96-9.676c13.109-38.695-6.716-85.04-48.466-96.225
	c-4.515-56.69-44.35-95.575-89.335-102.21c-51.489-7.595-98.665,25.115-114.359,77.11c-18.92-6.7-37.355-5.885-54.725,4.265
	c-7.88,3.645-15.09,9.025-21.56,16.1c-9.5,10.385-15.67,23.5-18.185,37.325c-3.725,0.585-7.385,1.175-10.835,2.41
	c-20.115,7.215-32.81,22.065-36.29,44.43c-2.17,13.926,2.205,27.82,4.645,33.436c9.635,22.18,31.98,34.76,54.68,31.43
	c1.13-0.165,2.77,0.345,3.745,1.16c1.2,35.455,18.415,66.81,44.24,84.72c41.435,28.74,94.745,19.885,128.375-19.524
	c14.41,14.739,31.56,21.899,51.71,19.3c20.03-2.585,35.585-13.64,46.936-31.61c5.239,1.41,10.215,3.445,15.354,4.005
	c20.125,2.2,36.47-5.805,48.46-23.899c4.59-6.926,8.93-15.905,8.93-31.641C459.055,304.66,452.615,289.885,441.775,279.98z"/>
<path fill="#FDFCEF" d="M382.545,246.97c0,0,58.215,0,58.57,0c13.444,0,24.34-10.9,24.34-24.345c0-11.73-8.295-21.515-19.34-23.825
	c0.125-1.025,0.215-2.065,0.215-3.125c0-13.925-11.285-25.21-25.21-25.21c-8.22,0-15.5,3.955-20.1,10.04
	c-1.176-15.5-15.021-27.455-31.221-25.475c-11.845,1.45-21.64,10.604-23.819,22.335c-0.7,3.76-0.625,7.415,0.069,10.84
	c-3.175-3.42-7.694-5.575-12.729-5.575c-9.215,0-16.735,7.175-17.33,16.24c-4.186-0.925-8.735-0.865-13.53,0.935
	c-9.16,3.44-15.685,12.065-16.069,21.845c-0.541,13.89,10.555,25.32,24.319,25.32c1.045,0,4.72,0,5.57,0h50.545"/>
<path fill="#472B29" d="M441.115,249.47h-58.57c-1.38,0-2.5-1.12-2.5-2.5c0-1.38,1.12-2.5,2.5-2.5h58.57
	c12.045,0,21.84-9.8,21.84-21.845c0-10.285-7.295-19.275-17.35-21.375c-1.275-0.265-2.131-1.46-1.971-2.755
	c0.115-0.925,0.195-1.865,0.195-2.82c0-12.525-10.19-22.71-22.71-22.71c-7.16,0-13.76,3.3-18.11,9.05
	c-0.625,0.835-1.685,1.2-2.7,0.89c-0.994-0.295-1.71-1.17-1.784-2.205c-0.521-6.86-3.875-13.295-9.21-17.665
	c-5.391-4.415-12.21-6.38-19.216-5.52c-10.779,1.32-19.689,9.67-21.665,20.31c-0.619,3.325-0.595,6.655,0.061,9.89
	c0.225,1.095-0.311,2.21-1.305,2.72c-0.995,0.51-2.216,0.3-2.976-0.52c-2.859-3.08-6.729-4.775-10.899-4.775
	c-7.811,0-14.32,6.105-14.83,13.9c-0.051,0.73-0.41,1.4-0.995,1.835s-1.335,0.595-2.04,0.44c-4.186-0.925-8.146-0.655-12.11,0.835
	c-8.305,3.115-14.109,10.995-14.449,19.6c-0.236,6.01,1.924,11.7,6.079,16.02c4.16,4.32,9.75,6.7,15.74,6.7h56.115
	c1.38,0,2.5,1.12,2.5,2.5c0,1.38-1.12,2.5-2.5,2.5H310.71c-7.37,0-14.239-2.925-19.345-8.235s-7.76-12.3-7.475-19.68
	c0.414-10.59,7.52-20.27,17.685-24.085c3.985-1.495,8.104-2,12.285-1.49c1.88-9.075,9.949-15.84,19.449-15.84
	c3.405,0,6.735,0.89,9.671,2.53c0-1.91,0.175-3.835,0.529-5.755c2.375-12.765,13.056-22.78,25.976-24.36
	c8.354-1.04,16.534,1.325,22.989,6.615c4.995,4.095,8.54,9.705,10.15,15.89c5.04-4.555,11.545-7.085,18.485-7.085
	c15.279,0,27.71,12.43,27.71,27.71c0,0.415-0.011,0.825-0.035,1.23c11.225,3.35,19.16,13.835,19.16,25.72
	C467.955,237.43,455.915,249.47,441.115,249.47z"/>
<path fill="#FDFCEF" d="M368.435,193.345c-9.005-0.59-16.755,5.63-17.31,13.89c-0.07,1.025-0.025,2.035,0.125,3.02
	c-1.735-1.96-4.31-3.295-7.26-3.485c-5.4-0.355-10.065,3.215-10.745,8.065c-0.985-0.27-2.005-0.45-3.07-0.52
	c-7.88-0.515-14.66,4.925-15.145,12.155"/>
<path fill="#472B29" d="M315.035,227.715c-0.03,0-0.061,0-0.085,0c-0.69-0.045-1.21-0.64-1.165-1.33
	c0.53-7.91,7.859-13.92,16.475-13.32c0.67,0.045,1.351,0.135,2.03,0.265c1.365-4.815,6.325-8.12,11.78-7.81
	c2.114,0.14,4.1,0.795,5.79,1.9c0.005-0.09,0.01-0.18,0.015-0.27c0.6-8.935,8.93-15.66,18.64-15.055
	c0.69,0.045,1.21,0.64,1.165,1.33c-0.045,0.685-0.595,1.195-1.33,1.165c-8.335-0.59-15.475,5.165-15.979,12.725
	c-0.061,0.915-0.021,1.84,0.115,2.75c0.085,0.55-0.205,1.085-0.705,1.32c-0.5,0.23-1.096,0.11-1.465-0.305
	c-1.605-1.81-3.881-2.905-6.405-3.065c-4.675-0.31-8.835,2.76-9.425,6.99c-0.051,0.355-0.25,0.67-0.551,0.87
	c-0.3,0.2-0.675,0.255-1.015,0.165c-0.945-0.255-1.9-0.415-2.825-0.48c-7.1-0.48-13.375,4.46-13.814,10.99
	C316.235,227.21,315.685,227.715,315.035,227.715z"/>
<path fill="#FDFCEF" d="M450.97,201.655c-8.46-3.99-18.245-1.165-21.854,6.31c-0.45,0.93-0.78,1.885-1,2.855"/>
<path fill="#472B29" d="M428.115,212.07c-0.09,0-0.186-0.01-0.28-0.03c-0.675-0.155-1.095-0.825-0.94-1.495
	c0.245-1.08,0.615-2.13,1.096-3.125c3.899-8.075,14.444-11.16,23.515-6.89c0.625,0.295,0.896,1.04,0.601,1.665
	c-0.29,0.625-1.04,0.885-1.665,0.6c-7.83-3.695-16.891-1.125-20.2,5.72c-0.396,0.82-0.705,1.69-0.91,2.59
	C429.2,211.68,428.685,212.07,428.115,212.07z"/>
<path fill="#FFFFFF" d="M91.54,240.33H41.595c-1.38,0-2.5-1.12-2.5-2.5s1.12-2.5,2.5-2.5H91.54c1.38,0,2.5,1.12,2.5,2.5
	S92.925,240.33,91.54,240.33z M105.89,240.33h-7.195c-1.38,0-2.5-1.12-2.5-2.5s1.12-2.5,2.5-2.5h7.195c1.38,0,2.5,1.12,2.5,2.5
	S107.27,240.33,105.89,240.33z M126.08,240.33H113.4c-1.38,0-2.5-1.12-2.5-2.5s1.12-2.5,2.5-2.5h12.68c1.38,0,2.5,1.12,2.5,2.5
	S127.46,240.33,126.08,240.33z M126.08,249.615H78.195c-1.38,0-2.5-1.12-2.5-2.5c0-1.38,1.12-2.5,2.5-2.5h47.885
	c1.38,0,2.5,1.12,2.5,2.5C128.58,248.495,127.46,249.615,126.08,249.615z M69.57,249.615h-2.89c-1.38,0-2.5-1.12-2.5-2.5
	c0-1.38,1.12-2.5,2.5-2.5h2.89c1.38,0,2.5,1.12,2.5,2.5C72.07,248.495,70.955,249.615,69.57,249.615z M57.735,249.615h-7.25
	c-1.38,0-2.5-1.12-2.5-2.5c0-1.38,1.12-2.5,2.5-2.5h7.25c1.38,0,2.5,1.12,2.5,2.5C60.235,248.495,59.12,249.615,57.735,249.615z
	 M103.23,231.045H78.195c-1.38,0-2.5-1.12-2.5-2.5s1.12-2.5,2.5-2.5h25.035c1.38,0,2.5,1.12,2.5,2.5S104.61,231.045,103.23,231.045z
	 M103.23,221.755h-6.26c-1.38,0-2.5-1.12-2.5-2.5s1.12-2.5,2.5-2.5h6.26c1.38,0,2.5,1.12,2.5,2.5S104.61,221.755,103.23,221.755z
	 M86.95,258.904h-8.755c-1.38,0-2.5-1.119-2.5-2.5c0-1.379,1.12-2.5,2.5-2.5h8.755c1.38,0,2.5,1.121,2.5,2.5
	C89.45,257.785,88.335,258.904,86.95,258.904z"/>
<g>
	<path fill="#FFFFFF" d="M356.34,109.485h-49.945c-1.379,0-2.5-1.12-2.5-2.5c0-1.38,1.121-2.5,2.5-2.5h49.945
		c1.38,0,2.5,1.12,2.5,2.5C358.84,108.365,357.725,109.485,356.34,109.485z M370.685,109.485h-7.199c-1.38,0-2.5-1.12-2.5-2.5
		c0-1.38,1.12-2.5,2.5-2.5h7.199c1.381,0,2.5,1.12,2.5,2.5C373.185,108.365,372.07,109.485,370.685,109.485z M390.88,109.485H378.2
		c-1.38,0-2.5-1.12-2.5-2.5c0-1.38,1.12-2.5,2.5-2.5h12.68c1.38,0,2.5,1.12,2.5,2.5C393.38,108.365,392.26,109.485,390.88,109.485z
		 M380.79,90.915h-47.885c-1.38,0-2.5-1.12-2.5-2.5s1.12-2.5,2.5-2.5h47.885c1.38,0,2.5,1.12,2.5,2.5S382.17,90.915,380.79,90.915z
		 M324.285,90.915h-2.891c-1.38,0-2.5-1.12-2.5-2.5s1.12-2.5,2.5-2.5h2.891c1.38,0,2.5,1.12,2.5,2.5S325.665,90.915,324.285,90.915z
		 M312.45,90.915h-7.25c-1.38,0-2.5-1.12-2.5-2.5s1.12-2.5,2.5-2.5h7.25c1.38,0,2.5,1.12,2.5,2.5S313.83,90.915,312.45,90.915z
		 M368.025,100.2H342.99c-1.38,0-2.5-1.12-2.5-2.5c0-1.38,1.12-2.5,2.5-2.5h25.035c1.38,0,2.5,1.12,2.5,2.5
		C370.525,99.08,369.41,100.2,368.025,100.2z"/>
	<path fill="#FFFFFF" d="M368.025,90.915h-6.261c-1.38,0-2.5-1.12-2.5-2.5s1.12-2.5,2.5-2.5h6.261c1.38,0,2.5,1.12,2.5,2.5
		S369.41,90.915,368.025,90.915z M335.745,100.2h-8.755c-1.38,0-2.5-1.12-2.5-2.5c0-1.38,1.12-2.5,2.5-2.5h8.755
		c1.38,0,2.5,1.12,2.5,2.5C338.245,99.08,337.13,100.2,335.745,100.2z"/>
</g>
<g>
	<path fill="#9DAA39" d="M332.64,364.475H184.965c-18.83,0-34.235-15.404-34.235-34.234V182.565
		c0-18.83,15.405-34.235,34.235-34.235H332.64c18.83,0,34.235,15.405,34.235,34.235V330.24
		C366.875,349.07,351.47,364.475,332.64,364.475z"/>
	<path fill="#472B29" d="M332.64,367.98H184.96c-20.81,0-37.735-16.931-37.735-37.735v-147.68c0-20.81,16.93-37.735,37.735-37.735
		h147.675c20.811,0,37.735,16.93,37.735,37.735V330.24C370.375,351.05,353.445,367.98,332.64,367.98z M184.96,151.83
		c-16.95,0-30.735,13.785-30.735,30.735V330.24c0,16.949,13.785,30.734,30.735,30.734h147.675c16.95,0,30.735-13.785,30.735-30.734
		V182.565c0-16.95-13.785-30.735-30.735-30.735H184.96z"/>
	<path fill="#FDFCEE" d="M323.69,349.04H193.91c-15.26,0-27.745-12.485-27.745-27.745v-129.78c0-15.26,12.485-27.745,27.745-27.745
		h129.78c15.26,0,27.744,12.485,27.744,27.745v129.78C351.435,336.555,338.95,349.04,323.69,349.04z"/>
	<path fill="#472B29" d="M323.285,350.79H194.32c-16.49,0-29.905-13.415-29.905-29.905v-128.96c0-16.49,13.415-29.905,29.905-29.905
		h122.805c0.965,0,1.75,0.785,1.75,1.75s-0.785,1.75-1.75,1.75H194.32c-14.56,0-26.405,11.845-26.405,26.405v128.96
		c0,14.561,11.845,26.405,26.405,26.405h128.96c14.56,0,26.399-11.845,26.399-26.405V249.54c0-0.965,0.785-1.75,1.75-1.75
		s1.75,0.785,1.75,1.75v71.345C353.185,337.375,339.77,350.79,323.285,350.79z M351.435,241c-0.965,0-1.75-0.785-1.75-1.75v-13.725
		c0-0.965,0.785-1.75,1.75-1.75c0.966,0,1.75,0.785,1.75,1.75v13.725C353.185,240.215,352.4,241,351.435,241z M351.435,220.41
		c-0.965,0-1.75-0.785-1.75-1.75v-6.86c0-0.965,0.785-1.75,1.75-1.75c0.966,0,1.75,0.785,1.75,1.75v6.86
		C353.185,219.63,352.4,220.41,351.435,220.41z"/>
	<path fill="#F1BC19" d="M291.154,199.085H221.3v112.86h69.854c12.65,0,17.671-10.955,17.671-20.49v-77.29
		C308.82,204.63,303.805,199.085,291.154,199.085z"/>
	<path fill="#472B29" d="M291.154,313.945H221.3c-1.105,0-2-0.896-2-2v-112.86c0-1.105,0.895-2,2-2h69.854
		c13.051,0,19.671,5.745,19.671,17.08v77.285C310.82,302.645,304.74,313.945,291.154,313.945z M223.3,309.945h67.854
		c12.371,0,15.671-11.625,15.671-18.49v-77.29c0-9.045-4.835-13.08-15.671-13.08H223.3V309.945z"/>
	<path fill="#CE942B" d="M223.005,200.895h14.375V309.96h-14.375V200.895z"/>
	<path fill="#472B29" d="M238.575,295.585c-0.69,0-1.25-0.56-1.25-1.25v-95.25c0-0.69,0.56-1.25,1.25-1.25
		c0.69,0,1.25,0.56,1.25,1.25v95.25C239.825,295.025,239.265,295.585,238.575,295.585z"/>
	<path fill="#EE3E54" d="M286.939,227.11l-7.004-4.79l-6.815,4.79v-26.875h13.819V227.11z"/>
	<path fill="#472B29" d="M286.939,228.355c-0.244,0-0.494-0.075-0.705-0.215l-6.289-4.295l-6.105,4.285
		c-0.385,0.275-0.88,0.3-1.295,0.085c-0.415-0.215-0.675-0.64-0.675-1.11v-26.87c0-0.69,0.56-1.25,1.25-1.25h13.819
		c0.69,0,1.25,0.56,1.25,1.25v26.87c0,0.465-0.254,0.89-0.664,1.105C287.346,228.31,287.145,228.355,286.939,228.355z
		 M279.936,221.07c0.244,0,0.494,0.075,0.705,0.215l5.049,3.45v-23.25H274.37V224.7l4.845-3.405
		C279.436,221.145,279.686,221.07,279.936,221.07z M221.81,208.295c-0.235,0-0.465-0.135-0.57-0.365
		c-0.145-0.31-0.005-0.685,0.31-0.83l16.25-7.43c0.3-0.145,0.685-0.01,0.83,0.31c0.145,0.31,0.005,0.685-0.31,0.83l-16.25,7.43
		C221.985,208.275,221.9,208.295,221.81,208.295z M221.81,214.45c-0.235,0-0.465-0.135-0.57-0.365
		c-0.145-0.31-0.005-0.685,0.31-0.83l16.25-7.43c0.3-0.15,0.685-0.01,0.83,0.31c0.145,0.31,0.005,0.685-0.31,0.83l-16.25,7.43
		C221.985,214.435,221.9,214.45,221.81,214.45z M221.81,220.61c-0.235,0-0.465-0.135-0.57-0.365c-0.145-0.315-0.005-0.685,0.31-0.83
		l16.25-7.435c0.3-0.15,0.685-0.01,0.83,0.31c0.145,0.31,0.005,0.685-0.31,0.83l-16.25,7.435
		C221.985,220.595,221.9,220.61,221.81,220.61z M221.81,226.765c-0.235,0-0.465-0.135-0.57-0.365
		c-0.145-0.315-0.005-0.685,0.31-0.83l16.25-7.435c0.3-0.145,0.685-0.01,0.83,0.31c0.145,0.31,0.005,0.685-0.31,0.83l-16.25,7.435
		C221.985,226.75,221.9,226.765,221.81,226.765z M221.81,232.925c-0.235,0-0.465-0.135-0.57-0.365
		c-0.145-0.31-0.005-0.685,0.31-0.83l16.25-7.43c0.3-0.145,0.685-0.01,0.83,0.31c0.145,0.31,0.005,0.685-0.31,0.83l-16.25,7.43
		C221.985,232.905,221.9,232.925,221.81,232.925z M221.81,239.08c-0.235,0-0.465-0.135-0.57-0.365
		c-0.145-0.31-0.005-0.685,0.31-0.83l16.25-7.43c0.3-0.15,0.685-0.01,0.83,0.31c0.145,0.31,0.005,0.685-0.31,0.83l-16.25,7.43
		C221.985,239.065,221.9,239.08,221.81,239.08z M221.81,245.24c-0.235,0-0.465-0.135-0.57-0.365c-0.145-0.31-0.005-0.685,0.31-0.83
		l16.25-7.43c0.3-0.146,0.685-0.005,0.83,0.31c0.145,0.31,0.005,0.685-0.31,0.83l-16.25,7.43
		C221.985,245.22,221.9,245.24,221.81,245.24z M221.81,251.395c-0.235,0-0.465-0.135-0.57-0.365c-0.145-0.31-0.005-0.685,0.31-0.829
		l16.25-7.43c0.3-0.145,0.685-0.01,0.83,0.31c0.145,0.31,0.005,0.685-0.31,0.83l-16.25,7.43
		C221.985,251.38,221.9,251.395,221.81,251.395z M221.81,257.555c-0.235,0-0.465-0.135-0.57-0.365
		c-0.145-0.31-0.005-0.685,0.31-0.83l12.54-5.734c0.305-0.15,0.685-0.01,0.83,0.311c0.145,0.31,0.005,0.685-0.31,0.83l-12.54,5.734
		C221.985,257.535,221.9,257.555,221.81,257.555z M221.81,263.715c-0.235,0-0.465-0.135-0.57-0.365
		c-0.145-0.31-0.005-0.685,0.31-0.83l7.585-3.47c0.3-0.149,0.685-0.01,0.83,0.31c0.145,0.311,0.005,0.686-0.31,0.83l-7.585,3.471
		C221.985,263.695,221.9,263.715,221.81,263.715z"/>
	<g>
		<path fill="#472B29" d="M238.575,308.4c-0.69,0-1.25-0.561-1.25-1.25v-6.461c0-0.689,0.56-1.25,1.25-1.25
			c0.69,0,1.25,0.561,1.25,1.25v6.461C239.825,307.84,239.265,308.4,238.575,308.4z"/>
	</g>
</g>
<g>
	<path fill="#FDFCEF" d="M202.47,378.255c9.38,0,17.51,0,17.63,0c10.505,0,19.025-8.335,19.025-18.62
		c0-8.97-6.485-16.46-15.115-18.225c0.1-0.785,0.165-1.58,0.165-2.391c0-10.649-8.82-19.285-19.705-19.285
		c-6.425,0-12.115,3.025-15.71,7.681c-0.92-11.854-11.74-21-24.4-19.485c-9.255,1.11-16.915,8.11-18.615,17.086
		c-0.545,2.879-0.49,5.67,0.055,8.295c-2.48-2.615-6.015-4.266-9.95-4.266c-7.2,0-13.08,5.485-13.545,12.42
		c-3.27-0.71-6.825-0.66-10.575,0.715c-7.16,2.631-12.26,9.23-12.56,16.711c-0.425,10.625,8.25,19.364,19.01,19.364
		c0.815,0,3.69,0,4.35,0h39.505 M170.215,378.255h1.79"/>
	<path fill="#472B29" d="M220.095,380.755h-17.63c-1.38,0-2.5-1.12-2.5-2.5s1.12-2.5,2.5-2.5h17.63
		c9.11,0,16.525-7.229,16.525-16.12c0-7.585-5.515-14.22-13.115-15.775c-1.28-0.26-2.145-1.465-1.98-2.764
		c0.09-0.686,0.15-1.371,0.15-2.08c0-9.256-7.715-16.785-17.205-16.785c-5.435,0-10.44,2.444-13.73,6.709
		c-0.635,0.82-1.7,1.166-2.695,0.865c-0.99-0.295-1.695-1.17-1.775-2.199c-0.395-5.07-2.81-9.67-6.815-12.955
		c-4.12-3.381-9.375-4.896-14.795-4.246c-8.195,0.98-14.96,7.181-16.46,15.07c-0.47,2.461-0.45,4.926,0.045,7.32
		c0.225,1.096-0.3,2.205-1.29,2.721c-0.99,0.52-2.2,0.319-2.975-0.496c-2.13-2.244-5.02-3.484-8.135-3.484
		c-5.815,0-10.67,4.43-11.05,10.09c-0.05,0.725-0.41,1.391-0.99,1.83c-0.58,0.436-1.32,0.595-2.035,0.445
		c-3.17-0.69-6.17-0.49-9.18,0.615c-6.28,2.31-10.67,8.119-10.925,14.465c-0.175,4.354,1.41,8.5,4.455,11.67
		c3.16,3.285,7.44,5.1,12.06,5.1h43.855c1.38,0,2.5,1.12,2.5,2.5s-1.12,2.5-2.5,2.5H118.18c-5.905,0-11.615-2.415-15.665-6.635
		c-3.995-4.16-6.07-9.605-5.84-15.336c0.33-8.34,6.035-15.955,14.195-18.955c3.04-1.114,6.175-1.524,9.36-1.219
		c1.72-6.951,8.12-12.07,15.62-12.07c2.45,0,4.855,0.56,7.03,1.6c0.045-1.195,0.185-2.4,0.41-3.6
		c1.895-10.01,10.44-17.865,20.775-19.1c6.775-0.806,13.38,1.09,18.565,5.344c3.72,3.051,6.36,7.011,7.7,11.451
		c3.94-3.226,8.885-5.006,14.15-5.006c12.245,0,22.205,9.775,22.205,21.785c0,0.17,0,0.335-0.005,0.505
		c8.785,2.765,14.955,10.9,14.955,20.11C241.62,371.279,231.965,380.755,220.095,380.755z M172.005,380.755h-1.79
		c-1.38,0-2.5-1.12-2.5-2.5s1.12-2.5,2.5-2.5h1.79c1.38,0,2.5,1.12,2.5,2.5S173.385,380.755,172.005,380.755z"/>
	<path fill="#472B29" d="M211.595,351.855c-0.09,0-0.18-0.01-0.275-0.03c-0.675-0.15-1.095-0.82-0.945-1.495
		c0.185-0.825,0.47-1.63,0.845-2.391c3.01-6.1,11.33-8.344,18.54-5.015c0.625,0.29,0.9,1.035,0.61,1.66
		c-0.295,0.625-1.03,0.896-1.66,0.61c-5.985-2.771-12.83-1.045-15.25,3.85c-0.285,0.58-0.505,1.195-0.645,1.83
		C212.68,351.46,212.165,351.855,211.595,351.855z"/>
	<g>
		<path fill="#472B29" d="M185.905,380.755h-5.515c-1.38,0-2.5-1.12-2.5-2.5s1.12-2.5,2.5-2.5h5.515c1.38,0,2.5,1.12,2.5,2.5
			S187.285,380.755,185.905,380.755z"/>
	</g>
</g>
</svg>
