<svg xmlns="http://www.w3.org/2000/svg"  viewBox="0 0 100 100" width="100px" height="100px"><path fill="#c7ede6" d="M88.355,55.996c0.299-0.614,0.563-1.259,0.792-1.935c2.622-7.739-1.343-17.008-9.693-19.245c-0.903-11.338-8.87-19.115-17.867-20.442c-10.298-1.519-19.733,5.023-22.872,15.422c-3.784-1.34-7.471-1.177-10.945,0.853c-1.576,0.729-3.018,1.805-4.312,3.22c-1.9,2.077-3.134,4.7-3.637,7.465c-0.745,0.117-1.477,0.235-2.167,0.482c-4.023,1.443-6.562,4.413-7.258,8.886c-0.434,2.785,0.441,5.564,0.929,6.687c1.927,4.436,6.396,6.952,10.936,6.286c0.226-0.033,0.554,0.069,0.749,0.232c0.24,7.091,3.683,13.362,8.848,16.944c8.287,5.748,18.949,3.977,25.675-3.905c2.882,2.948,6.312,4.38,10.342,3.86c4.006-0.517,7.117-2.728,9.387-6.322c1.048,0.282,2.043,0.689,3.071,0.801c4.025,0.44,7.294-1.161,9.692-4.78c0.918-1.385,1.786-3.181,1.786-6.328C91.811,60.932,90.523,57.977,88.355,55.996z"/><path fill="#fdfcef" d="M76.509,49.394c0,0,11.643,0,11.714,0c2.689,0,4.868-2.18,4.868-4.869c0-2.346-1.659-4.303-3.868-4.765c0.025-0.205,0.043-0.413,0.043-0.625c0-2.785-2.257-5.042-5.042-5.042c-1.644,0-3.1,0.791-4.02,2.008c-0.235-3.1-3.004-5.491-6.244-5.095c-2.369,0.29-4.328,2.121-4.764,4.467c-0.14,0.752-0.125,1.483,0.014,2.168c-0.635-0.684-1.539-1.115-2.546-1.115c-1.843,0-3.347,1.435-3.466,3.248c-0.837-0.185-1.747-0.173-2.706,0.187c-1.832,0.688-3.137,2.413-3.214,4.369c-0.108,2.778,2.111,5.064,4.864,5.064c0.209,0,0.944,0,1.114,0h10.109"/><path fill="#472b29" d="M88.223,49.894H76.509c-0.276,0-0.5-0.224-0.5-0.5s0.224-0.5,0.5-0.5h11.714c2.409,0,4.368-1.96,4.368-4.369c0-2.057-1.459-3.855-3.47-4.275c-0.255-0.053-0.426-0.292-0.394-0.551c0.023-0.185,0.039-0.373,0.039-0.564c0-2.505-2.038-4.542-4.542-4.542c-1.432,0-2.752,0.66-3.622,1.81c-0.125,0.167-0.337,0.24-0.54,0.178c-0.199-0.059-0.342-0.234-0.357-0.441c-0.104-1.372-0.775-2.659-1.842-3.533c-1.078-0.883-2.442-1.276-3.843-1.104c-2.156,0.264-3.938,1.934-4.333,4.062c-0.124,0.665-0.119,1.331,0.012,1.978c0.045,0.219-0.062,0.442-0.261,0.544c-0.199,0.102-0.443,0.06-0.595-0.104c-0.572-0.616-1.346-0.955-2.18-0.955c-1.562,0-2.864,1.221-2.966,2.78c-0.01,0.146-0.082,0.28-0.199,0.367s-0.267,0.119-0.408,0.088c-0.837-0.185-1.629-0.131-2.422,0.167c-1.661,0.623-2.822,2.199-2.89,3.92c-0.047,1.202,0.385,2.34,1.216,3.204c0.832,0.864,1.95,1.34,3.148,1.34h11.223c0.276,0,0.5,0.224,0.5,0.5s-0.224,0.5-0.5,0.5H62.142c-1.474,0-2.848-0.585-3.869-1.647c-1.021-1.062-1.552-2.46-1.495-3.936c0.083-2.118,1.504-4.054,3.537-4.817c0.797-0.299,1.621-0.4,2.457-0.298c0.376-1.815,1.99-3.168,3.89-3.168c0.681,0,1.347,0.178,1.934,0.506c0-0.382,0.035-0.767,0.106-1.151c0.475-2.553,2.611-4.556,5.195-4.872c1.671-0.208,3.307,0.265,4.598,1.323c0.999,0.819,1.708,1.941,2.03,3.178c1.008-0.911,2.309-1.417,3.697-1.417c3.056,0,5.542,2.486,5.542,5.542c0,0.083-0.002,0.165-0.007,0.246c2.245,0.67,3.832,2.767,3.832,5.144C93.591,47.486,91.183,49.894,88.223,49.894z"/><path fill="#fdfcef" d="M73.687,38.669c-1.801-0.118-3.351,1.126-3.462,2.778c-0.014,0.205-0.005,0.407,0.025,0.604c-0.347-0.392-0.862-0.659-1.452-0.697c-1.08-0.071-2.013,0.643-2.149,1.613c-0.197-0.054-0.401-0.09-0.614-0.104c-1.576-0.103-2.932,0.985-3.029,2.431"/><path fill="#472b29" d="M63.007,45.543c-0.006,0-0.012,0-0.017,0c-0.138-0.009-0.242-0.128-0.233-0.266c0.106-1.582,1.572-2.784,3.295-2.664c0.134,0.009,0.27,0.027,0.406,0.053c0.273-0.963,1.265-1.624,2.356-1.562c0.423,0.028,0.82,0.159,1.158,0.38c0.001-0.018,0.002-0.036,0.003-0.054c0.12-1.787,1.786-3.132,3.728-3.011c0.138,0.009,0.242,0.128,0.233,0.266c-0.009,0.137-0.119,0.239-0.266,0.233c-1.667-0.118-3.095,1.033-3.196,2.545c-0.012,0.183-0.004,0.368,0.023,0.55c0.017,0.11-0.041,0.217-0.141,0.264c-0.1,0.046-0.219,0.022-0.293-0.061c-0.321-0.362-0.776-0.581-1.281-0.613c-0.935-0.062-1.767,0.552-1.885,1.398c-0.01,0.071-0.05,0.134-0.11,0.174c-0.06,0.04-0.135,0.051-0.203,0.033c-0.189-0.051-0.38-0.083-0.565-0.096c-1.42-0.096-2.675,0.892-2.763,2.198C63.247,45.442,63.137,45.543,63.007,45.543z"/><path fill="#fdfcef" d="M90.194,40.331c-1.692-0.798-3.649-0.233-4.371,1.262c-0.09,0.186-0.156,0.377-0.2,0.571"/><path fill="#472b29" d="M85.623,42.414c-0.018,0-0.037-0.002-0.056-0.006c-0.135-0.031-0.219-0.165-0.188-0.299c0.049-0.216,0.123-0.426,0.219-0.625c0.78-1.615,2.889-2.232,4.703-1.378c0.125,0.059,0.179,0.208,0.12,0.333c-0.058,0.125-0.208,0.177-0.333,0.12c-1.566-0.739-3.378-0.225-4.04,1.144c-0.079,0.164-0.141,0.338-0.182,0.518C85.84,42.336,85.737,42.414,85.623,42.414z"/><path fill="#fff" d="M18.308 48.066H8.319c-.276 0-.5-.224-.5-.5s.224-.5.5-.5h9.989c.276 0 .5.224.5.5S18.585 48.066 18.308 48.066zM21.178 48.066h-1.439c-.276 0-.5-.224-.5-.5s.224-.5.5-.5h1.439c.276 0 .5.224.5.5S21.454 48.066 21.178 48.066zM25.216 48.066H22.68c-.276 0-.5-.224-.5-.5s.224-.5.5-.5h2.536c.276 0 .5.224.5.5S25.492 48.066 25.216 48.066zM25.216 49.923h-9.577c-.276 0-.5-.224-.5-.5s.224-.5.5-.5h9.577c.276 0 .5.224.5.5S25.492 49.923 25.216 49.923zM13.914 49.923h-.578c-.276 0-.5-.224-.5-.5s.224-.5.5-.5h.578c.276 0 .5.224.5.5S14.191 49.923 13.914 49.923zM11.547 49.923h-1.45c-.276 0-.5-.224-.5-.5s.224-.5.5-.5h1.45c.276 0 .5.224.5.5S11.824 49.923 11.547 49.923zM20.646 46.209h-5.007c-.276 0-.5-.224-.5-.5s.224-.5.5-.5h5.007c.276 0 .5.224.5.5S20.922 46.209 20.646 46.209zM20.646 44.351h-1.252c-.276 0-.5-.224-.5-.5s.224-.5.5-.5h1.252c.276 0 .5.224.5.5S20.922 44.351 20.646 44.351zM17.39 51.781h-1.751c-.276 0-.5-.224-.5-.5s.224-.5.5-.5h1.751c.276 0 .5.224.5.5S17.667 51.781 17.39 51.781z"/><g><path fill="#fff" d="M71.268 21.897h-9.989c-.276 0-.5-.224-.5-.5s.224-.5.5-.5h9.989c.276 0 .5.224.5.5S71.545 21.897 71.268 21.897zM74.137 21.897h-1.44c-.276 0-.5-.224-.5-.5s.224-.5.5-.5h1.44c.276 0 .5.224.5.5S74.414 21.897 74.137 21.897zM78.176 21.897H75.64c-.276 0-.5-.224-.5-.5s.224-.5.5-.5h2.536c.276 0 .5.224.5.5S78.452 21.897 78.176 21.897zM76.158 18.183h-9.577c-.276 0-.5-.224-.5-.5s.224-.5.5-.5h9.577c.276 0 .5.224.5.5S76.434 18.183 76.158 18.183zM64.857 18.183h-.578c-.276 0-.5-.224-.5-.5s.224-.5.5-.5h.578c.276 0 .5.224.5.5S65.133 18.183 64.857 18.183zM62.49 18.183h-1.45c-.276 0-.5-.224-.5-.5s.224-.5.5-.5h1.45c.276 0 .5.224.5.5S62.766 18.183 62.49 18.183zM73.605 20.04h-5.007c-.276 0-.5-.224-.5-.5s.224-.5.5-.5h5.007c.276 0 .5.224.5.5S73.882 20.04 73.605 20.04z"/><path fill="#fff" d="M73.605 18.183h-1.252c-.276 0-.5-.224-.5-.5s.224-.5.5-.5h1.252c.276 0 .5.224.5.5S73.882 18.183 73.605 18.183zM67.149 20.04h-1.751c-.276 0-.5-.224-.5-.5s.224-.5.5-.5h1.751c.276 0 .5.224.5.5S67.426 20.04 67.149 20.04z"/></g><g><path fill="#9daa39" d="M66.528,72.895H36.993c-3.766,0-6.847-3.081-6.847-6.847V36.513c0-3.766,3.081-6.847,6.847-6.847h29.535c3.766,0,6.847,3.081,6.847,6.847v29.535C73.375,69.814,70.294,72.895,66.528,72.895z"/><path fill="#472b29" d="M66.528,73.596H36.992c-4.162,0-7.547-3.386-7.547-7.547V36.513c0-4.162,3.386-7.547,7.547-7.547h29.535c4.162,0,7.547,3.386,7.547,7.547v29.535C74.075,70.21,70.689,73.596,66.528,73.596z M36.992,30.366c-3.39,0-6.147,2.757-6.147,6.147v29.535c0,3.39,2.757,6.147,6.147,6.147h29.535c3.39,0,6.147-2.757,6.147-6.147V36.513c0-3.39-2.757-6.147-6.147-6.147H36.992z"/><path fill="#fdfcee" d="M64.738,69.808H38.782c-3.052,0-5.549-2.497-5.549-5.549V38.303c0-3.052,2.497-5.549,5.549-5.549h25.956c3.052,0,5.549,2.497,5.549,5.549v25.956C70.287,67.311,67.79,69.808,64.738,69.808z"/><path fill="#472b29" d="M64.657 70.158H38.864c-3.298 0-5.981-2.683-5.981-5.981V38.385c0-3.298 2.683-5.981 5.981-5.981h24.561c.193 0 .35.157.35.35s-.157.35-.35.35H38.864c-2.912 0-5.281 2.369-5.281 5.281v25.792c0 2.912 2.369 5.281 5.281 5.281h25.792c2.912 0 5.28-2.369 5.28-5.281V49.908c0-.193.157-.35.35-.35s.35.157.35.35v14.269C70.637 67.475 67.954 70.158 64.657 70.158zM70.287 48.2c-.193 0-.35-.157-.35-.35v-2.745c0-.193.157-.35.35-.35s.35.157.35.35v2.745C70.637 48.043 70.48 48.2 70.287 48.2zM70.287 44.082c-.193 0-.35-.157-.35-.35V42.36c0-.193.157-.35.35-.35s.35.157.35.35v1.372C70.637 43.926 70.48 44.082 70.287 44.082z"/><path fill="#f1bc19" d="M58.231,39.817H44.26v22.572h13.971c2.53,0,3.534-2.191,3.534-4.098V42.833C61.764,40.926,60.761,39.817,58.231,39.817z"/><path fill="#472b29" d="M58.231,62.789H44.26c-0.221,0-0.4-0.179-0.4-0.4V39.817c0-0.221,0.179-0.4,0.4-0.4h13.971c2.61,0,3.934,1.149,3.934,3.416V58.29C62.164,60.529,60.948,62.789,58.231,62.789z M44.66,61.989h13.571c2.474,0,3.134-2.325,3.134-3.698V42.833c0-1.809-0.967-2.616-3.134-2.616H44.66V61.989z"/><path fill="#ce942b" d="M44.601 40.179H47.476V61.992000000000004H44.601z"/><path fill="#472b29" d="M47.715,59.117c-0.138,0-0.25-0.112-0.25-0.25v-19.05c0-0.138,0.112-0.25,0.25-0.25s0.25,0.112,0.25,0.25v19.05C47.965,59.005,47.853,59.117,47.715,59.117z"/><path fill="#ee3e54" d="M57.388 45.422L55.987 44.464 54.624 45.422 54.624 40.047 57.388 40.047z"/><path fill="#472b29" d="M57.388 45.671c-.049 0-.099-.015-.141-.043l-1.258-.859-1.221.857c-.077.055-.176.06-.259.017-.083-.043-.135-.128-.135-.222v-5.374c0-.138.112-.25.25-.25h2.764c.138 0 .25.112.25.25v5.374c0 .093-.051.178-.133.221C57.469 45.662 57.429 45.671 57.388 45.671zM55.987 44.214c.049 0 .099.015.141.043l1.01.69v-4.65h-2.264v4.643l.969-.681C55.887 44.229 55.937 44.214 55.987 44.214zM44.362 41.659c-.047 0-.093-.027-.114-.073-.029-.062-.001-.137.062-.166l3.25-1.486c.06-.029.137-.002.166.062.029.062.001.137-.062.166l-3.25 1.486C44.397 41.655 44.38 41.659 44.362 41.659zM44.362 42.89c-.047 0-.093-.027-.114-.073-.029-.062-.001-.137.062-.166l3.25-1.486c.06-.03.137-.002.166.062.029.062.001.137-.062.166l-3.25 1.486C44.397 42.887 44.38 42.89 44.362 42.89zM44.362 44.122c-.047 0-.093-.027-.114-.073-.029-.063-.001-.137.062-.166l3.25-1.487c.06-.03.137-.002.166.062.029.062.001.137-.062.166l-3.25 1.487C44.397 44.119 44.38 44.122 44.362 44.122zM44.362 45.353c-.047 0-.093-.027-.114-.073-.029-.063-.001-.137.062-.166l3.25-1.487c.06-.029.137-.002.166.062.029.062.001.137-.062.166l-3.25 1.487C44.397 45.35 44.38 45.353 44.362 45.353zM44.362 46.585c-.047 0-.093-.027-.114-.073-.029-.062-.001-.137.062-.166l3.25-1.486c.06-.029.137-.002.166.062.029.062.001.137-.062.166l-3.25 1.486C44.397 46.581 44.38 46.585 44.362 46.585zM44.362 47.816c-.047 0-.093-.027-.114-.073-.029-.062-.001-.137.062-.166l3.25-1.486c.06-.03.137-.002.166.062.029.062.001.137-.062.166l-3.25 1.486C44.397 47.813 44.38 47.816 44.362 47.816zM44.362 49.048c-.047 0-.093-.027-.114-.073-.029-.062-.001-.137.062-.166l3.25-1.486c.06-.029.137-.001.166.062.029.062.001.137-.062.166l-3.25 1.486C44.397 49.044 44.38 49.048 44.362 49.048zM44.362 50.279c-.047 0-.093-.027-.114-.073-.029-.062-.001-.137.062-.166l3.25-1.486c.06-.029.137-.002.166.062.029.062.001.137-.062.166l-3.25 1.486C44.397 50.276 44.38 50.279 44.362 50.279zM44.362 51.511c-.047 0-.093-.027-.114-.073-.029-.062-.001-.137.062-.166l2.508-1.147c.061-.03.137-.002.166.062.029.062.001.137-.062.166l-2.508 1.147C44.397 51.507 44.38 51.511 44.362 51.511zM44.362 52.743c-.047 0-.093-.027-.114-.073-.029-.062-.001-.137.062-.166l1.517-.694c.06-.03.137-.002.166.062.029.062.001.137-.062.166l-1.517.694C44.397 52.739 44.38 52.743 44.362 52.743z"/><g><path fill="#472b29" d="M47.715,61.68c-0.138,0-0.25-0.112-0.25-0.25v-1.292c0-0.138,0.112-0.25,0.25-0.25s0.25,0.112,0.25,0.25v1.292C47.965,61.568,47.853,61.68,47.715,61.68z"/></g></g><g><path fill="#fdfcef" d="M40.494,75.651c1.876,0,3.502,0,3.526,0c2.101,0,3.805-1.667,3.805-3.724c0-1.794-1.297-3.292-3.023-3.645c0.02-0.157,0.033-0.316,0.033-0.478c0-2.13-1.764-3.857-3.941-3.857c-1.285,0-2.423,0.605-3.142,1.536c-0.184-2.371-2.348-4.2-4.88-3.897c-1.851,0.222-3.383,1.622-3.723,3.417c-0.109,0.576-0.098,1.134,0.011,1.659c-0.496-0.523-1.203-0.853-1.99-0.853c-1.44,0-2.616,1.097-2.709,2.484c-0.654-0.142-1.365-0.132-2.115,0.143c-1.432,0.526-2.452,1.846-2.512,3.342c-0.085,2.125,1.65,3.873,3.802,3.873c0.163,0,0.738,0,0.87,0h7.901 M34.043,75.651h0.358"/><path fill="#472b29" d="M44.019,76.151h-3.526c-0.276,0-0.5-0.224-0.5-0.5s0.224-0.5,0.5-0.5h3.526c1.822,0,3.305-1.446,3.305-3.224c0-1.517-1.103-2.844-2.623-3.155c-0.256-0.052-0.429-0.293-0.396-0.553c0.018-0.137,0.03-0.274,0.03-0.416c0-1.851-1.543-3.357-3.441-3.357c-1.087,0-2.088,0.489-2.746,1.342c-0.127,0.164-0.34,0.233-0.539,0.173c-0.198-0.059-0.339-0.234-0.355-0.44c-0.079-1.014-0.562-1.934-1.363-2.591c-0.824-0.676-1.875-0.979-2.959-0.849c-1.639,0.196-2.992,1.436-3.292,3.014c-0.094,0.492-0.09,0.985,0.009,1.464c0.045,0.219-0.06,0.441-0.258,0.544c-0.198,0.104-0.44,0.064-0.595-0.099c-0.426-0.449-1.004-0.697-1.627-0.697c-1.163,0-2.134,0.886-2.21,2.018c-0.01,0.145-0.082,0.278-0.198,0.366c-0.116,0.087-0.264,0.119-0.407,0.089c-0.634-0.138-1.234-0.098-1.836,0.123c-1.256,0.462-2.134,1.624-2.185,2.893c-0.035,0.871,0.282,1.7,0.891,2.334c0.632,0.657,1.488,1.02,2.412,1.02h8.771c0.276,0,0.5,0.224,0.5,0.5s-0.224,0.5-0.5,0.5h-8.771c-1.181,0-2.323-0.483-3.133-1.327c-0.799-0.832-1.214-1.921-1.168-3.067c0.066-1.668,1.207-3.191,2.839-3.791c0.608-0.223,1.235-0.305,1.872-0.244c0.344-1.39,1.624-2.414,3.124-2.414c0.49,0,0.971,0.112,1.406,0.32c0.009-0.239,0.037-0.48,0.082-0.72c0.379-2.002,2.088-3.573,4.155-3.82c1.355-0.161,2.676,0.218,3.713,1.069c0.744,0.61,1.272,1.402,1.54,2.29c0.788-0.645,1.777-1.001,2.83-1.001c2.449,0,4.441,1.955,4.441,4.357c0,0.034,0,0.067-0.001,0.101c1.757,0.553,2.991,2.18,2.991,4.022C48.324,74.256,46.393,76.151,44.019,76.151z M34.401,76.151h-0.358c-0.276,0-0.5-0.224-0.5-0.5s0.224-0.5,0.5-0.5h0.358c0.276,0,0.5,0.224,0.5,0.5S34.677,76.151,34.401,76.151z"/><path fill="#472b29" d="M42.319,70.371c-0.018,0-0.036-0.002-0.055-0.006c-0.135-0.03-0.219-0.164-0.189-0.299c0.037-0.165,0.094-0.326,0.169-0.478c0.602-1.22,2.266-1.669,3.708-1.003c0.125,0.058,0.18,0.207,0.122,0.332c-0.059,0.125-0.206,0.179-0.332,0.122c-1.197-0.554-2.566-0.209-3.05,0.77c-0.057,0.116-0.101,0.239-0.129,0.366C42.536,70.292,42.433,70.371,42.319,70.371z"/><g><path fill="#472b29" d="M37.181,76.151h-1.103c-0.276,0-0.5-0.224-0.5-0.5s0.224-0.5,0.5-0.5h1.103c0.276,0,0.5,0.224,0.5,0.5S37.457,76.151,37.181,76.151z"/></g></g></svg>