<?xml version="1.0" encoding="iso-8859-1"?>
<!-- Generator: Adobe Illustrator 25.0.0, SVG Export Plug-In . SVG Version: 6.00 Build 0)  -->
<svg version="1.1" baseProfile="basic" id="Layer_1"
	 xmlns="http://www.w3.org/2000/svg" xmlns:xlink="http://www.w3.org/1999/xlink" x="0px" y="0px" viewBox="0 0 16 16"
	 xml:space="preserve">
<polygon style="fill:#FEDB29;" points="2,15 2,0 9,0 14,5 14,15 "/>
<polygon style="fill:#F28211;" points="9,0 9,5 14,5 "/>
<path style="fill:#14264E;" d="M10,10H8v5h1v-1h1c0.551,0,1-0.449,1-1v-2C11,10.449,10.551,10,10,10z M10,13H9v-2h1V13z"/>
<polygon style="fill:#14264E;" points="2,11 3.899,11 2,13.849 2,15 5,15 5,14 3.101,14 5,11.151 5,10 2,10 "/>
<rect x="6" y="10" style="fill:#14264E;" width="1" height="5"/>
</svg>